<svg width="12" height="12" viewBox="0 0 12 12" fill="none" xmlns="http://www.w3.org/2000/svg">
<g clip-path="url(#clip0_2682_86)">
<path d="M6.5 2H8C8.26522 2 8.51957 2.10536 8.70711 2.29289C8.89464 2.48043 9 2.73478 9 3V10M1 10H2.5M2.5 10L5.879 10.8445C5.95269 10.8629 6.0296 10.8642 6.10389 10.8484C6.17818 10.8326 6.2479 10.8001 6.30776 10.7534C6.36762 10.7066 6.41604 10.6469 6.44935 10.5786C6.48266 10.5104 6.49998 10.4354 6.5 10.3595V2.28098C6.4999 2.12907 6.46519 1.97868 6.39851 1.84218C6.33183 1.70569 6.23493 1.58618 6.11517 1.49273C5.99541 1.39928 5.85592 1.33435 5.70732 1.30285C5.55871 1.27136 5.40488 1.27414 5.2575 1.31098L3.2575 1.81098C3.04116 1.86505 2.8491 1.98989 2.71185 2.16564C2.5746 2.3414 2.50003 2.55798 2.5 2.78098V10ZM6.5 10H11M5 6V6.005" stroke="#F97316" stroke-linecap="round" stroke-linejoin="round"/>
</g>
<defs>
<clipPath id="clip0_2682_86">
<rect width="12" height="12" fill="white"/>
</clipPath>
</defs>
</svg>
