<svg width="16" height="16" viewBox="0 0 16 16" fill="none" xmlns="http://www.w3.org/2000/svg">
<path d="M4.02 8.02003L5.35333 10.3334L3.66667 12.4534L1.33333 8.41336L4.02 8.02003ZM11.3333 12V10.1934C11.92 9.93336 12.3333 9.35336 12.3333 8.6667C12.3333 8.2867 12.2 7.93336 11.98 7.6667L13.2933 6.90003C13.9667 6.5067 14.2 5.6467 13.8067 4.97336L12.8867 3.37336C12.6991 3.05004 12.3913 2.81395 12.0304 2.71655C11.6695 2.61914 11.2848 2.66832 10.96 2.85336L5.54 6.00003C4.90667 6.35336 4.68667 7.1667 5.05333 7.8067L6.05333 9.54003C6.42 10.1734 7.24 10.3934 7.87333 10.0267L9.12667 9.3067C9.29333 9.70003 9.60667 10.02 10 10.1934V12C10 12.7334 10.6 13.3334 11.3333 13.3334H14.6667V12H11.3333Z" fill="white"/>
</svg>
