<svg width="12" height="12" viewBox="0 0 12 12" fill="none" xmlns="http://www.w3.org/2000/svg">
<g clip-path="url(#clip0_4073_44)">
<path d="M3.5 9V6C3.5 5.33696 3.76339 4.70107 4.23223 4.23223C4.70107 3.76339 5.33696 3.5 6 3.5C6.66304 3.5 7.29893 3.76339 7.76777 4.23223C8.23661 4.70107 8.5 5.33696 8.5 6V9M3.5 9H8.5M3.5 9C3.23478 9 2.98043 9.10536 2.79289 9.29289C2.60536 9.48043 2.5 9.73478 2.5 10V10.5C2.5 10.6326 2.55268 10.7598 2.64645 10.8536C2.74021 10.9473 2.86739 11 3 11H9C9.13261 11 9.25979 10.9473 9.35355 10.8536C9.44732 10.7598 9.5 10.6326 9.5 10.5V10C9.5 9.73478 9.39464 9.48043 9.20711 9.29289C9.01957 9.10536 8.76522 9 8.5 9M10.5 6H11M9.25 2.25L9 2.5M1 6H1.5M6 1V1.5M2.46448 2.46448L2.81798 2.81798M6 6V9" stroke="#F43F5E" stroke-linecap="round" stroke-linejoin="round"/>
</g>
<defs>
<clipPath id="clip0_4073_44">
<rect width="12" height="12" fill="white"/>
</clipPath>
</defs>
</svg>
