<svg width="12" height="12" viewBox="0 0 12 12" fill="none" xmlns="http://www.w3.org/2000/svg">
<path d="M9 10.5C9 9.43913 8.57857 8.42172 7.82843 7.67157C7.07828 6.92143 6.06087 6.5 5 6.5M5 6.5C3.93913 6.5 2.92172 6.92143 2.17157 7.67157C1.42143 8.42172 1 9.43913 1 10.5M5 6.5C6.38071 6.5 7.5 5.38071 7.5 4C7.5 2.61929 6.38071 1.5 5 1.5C3.61929 1.5 2.5 2.61929 2.5 4C2.5 5.38071 3.61929 6.5 5 6.5ZM11 9.99998C11 8.31498 10 6.74998 9.00002 5.99998C9.32873 5.75336 9.59158 5.42952 9.76531 5.05711C9.93903 4.6847 10.0183 4.27521 9.99603 3.86488C9.97379 3.45454 9.85073 3.05602 9.63776 2.70458C9.42479 2.35313 9.12847 2.05961 8.77502 1.84998" stroke="#14B8A6" stroke-linecap="round" stroke-linejoin="round"/>
</svg>
